<mxfile host="app.diagrams.net" modified="2025-01-11T12:00:00.000Z" agent="5.0" version="24.2.5" etag="data-flow-123" type="device">
  <diagram name="Data Flow Diagram" id="data-flow-diagram">
    <mxGraphModel dx="1422" dy="794" grid="1" gridSize="10" guides="1" tooltips="1" connect="1" arrows="1" fold="1" page="1" pageScale="1" pageWidth="1169" pageHeight="827" math="0" shadow="0">
      <root>
        <mxCell id="0"/>
        <mxCell id="1" parent="0"/>
        
        <!-- Title -->
        <mxCell id="title" value="Data Flow Diagram - Source to Insight Journey" style="text;html=1;strokeColor=none;fillColor=none;align=center;verticalAlign=middle;whiteSpace=wrap;rounded=0;fontSize=24;fontStyle=1;" vertex="1" parent="1">
          <mxGeometry x="234" y="20" width="701" height="40" as="geometry"/>
        </mxCell>
        
        <!-- External Data Sources -->
        <mxCell id="external_sources_group" value="External Data Sources" style="rounded=1;whiteSpace=wrap;html=1;fillColor=#e1d5e7;strokeColor=#9673a6;fontSize=14;fontStyle=1;verticalAlign=top;" vertex="1" parent="1">
          <mxGeometry x="40" y="80" width="160" height="200" as="geometry"/>
        </mxCell>
        
        <mxCell id="erp_systems" value="🏢 ERP Systems&#xa;(SAP, Oracle)" style="rounded=1;whiteSpace=wrap;html=1;fillColor=#f3e5f5;strokeColor=#9673a6;" vertex="1" parent="1">
          <mxGeometry x="60" y="110" width="120" height="40" as="geometry"/>
        </mxCell>
        
        <mxCell id="crm_data" value="👥 CRM Data&#xa;(Salesforce)" style="rounded=1;whiteSpace=wrap;html=1;fillColor=#f3e5f5;strokeColor=#9673a6;" vertex="1" parent="1">
          <mxGeometry x="60" y="160" width="120" height="40" as="geometry"/>
        </mxCell>
        
        <mxCell id="social_media" value="📱 Social Media&#xa;(APIs)" style="rounded=1;whiteSpace=wrap;html=1;fillColor=#f3e5f5;strokeColor=#9673a6;" vertex="1" parent="1">
          <mxGeometry x="60" y="210" width="120" height="40" as="geometry"/>
        </mxCell>
        
        <!-- Edge Devices -->
        <mxCell id="edge_devices_group" value="Edge Devices &amp; IoT" style="rounded=1;whiteSpace=wrap;html=1;fillColor=#d5e8d4;strokeColor=#82b366;fontSize=14;fontStyle=1;verticalAlign=top;" vertex="1" parent="1">
          <mxGeometry x="40" y="300" width="160" height="150" as="geometry"/>
        </mxCell>
        
        <mxCell id="raspberry_pi" value="🥧 Raspberry Pi&#xa;Store Sensors" style="rounded=1;whiteSpace=wrap;html=1;fillColor=#d5f5d5;strokeColor=#82b366;" vertex="1" parent="1">
          <mxGeometry x="60" y="330" width="120" height="40" as="geometry"/>
        </mxCell>
        
        <mxCell id="iot_sensors" value="📡 IoT Sensors&#xa;Temperature, Traffic" style="rounded=1;whiteSpace=wrap;html=1;fillColor=#d5f5d5;strokeColor=#82b366;" vertex="1" parent="1">
          <mxGeometry x="60" y="380" width="120" height="40" as="geometry"/>
        </mxCell>
        
        <!-- Data Ingestion Layer -->
        <mxCell id="ingestion_layer" value="Data Ingestion &amp; Streaming" style="rounded=1;whiteSpace=wrap;html=1;fillColor=#fff2cc;strokeColor=#d6b656;fontSize=16;fontStyle=1;verticalAlign=top;" vertex="1" parent="1">
          <mxGeometry x="240" y="80" width="200" height="370" as="geometry"/>
        </mxCell>
        
        <mxCell id="kafka_streams" value="🔄 Apache Kafka&#xa;Event Streaming" style="rounded=1;whiteSpace=wrap;html=1;fillColor=#ffffcc;strokeColor=#d6b656;" vertex="1" parent="1">
          <mxGeometry x="260" y="110" width="160" height="50" as="geometry"/>
        </mxCell>
        
        <mxCell id="supabase_edge" value="⚡ Supabase Edge&#xa;Functions" style="rounded=1;whiteSpace=wrap;html=1;fillColor=#ffffcc;strokeColor=#d6b656;" vertex="1" parent="1">
          <mxGeometry x="260" y="180" width="160" height="50" as="geometry"/>
        </mxCell>
        
        <mxCell id="batch_etl" value="📊 Batch ETL&#xa;Scheduled Processing" style="rounded=1;whiteSpace=wrap;html=1;fillColor=#ffffcc;strokeColor=#d6b656;" vertex="1" parent="1">
          <mxGeometry x="260" y="250" width="160" height="50" as="geometry"/>
        </mxCell>
        
        <mxCell id="rest_apis" value="🌐 REST APIs&#xa;Real-time Ingestion" style="rounded=1;whiteSpace=wrap;html=1;fillColor=#ffffcc;strokeColor=#d6b656;" vertex="1" parent="1">
          <mxGeometry x="260" y="320" width="160" height="50" as="geometry"/>
        </mxCell>
        
        <mxCell id="file_uploads" value="📁 File Uploads&#xa;CSV, JSON, Parquet" style="rounded=1;whiteSpace=wrap;html=1;fillColor=#ffffcc;strokeColor=#d6b656;" vertex="1" parent="1">
          <mxGeometry x="260" y="390" width="160" height="50" as="geometry"/>
        </mxCell>
        
        <!-- Medallion Architecture -->
        <mxCell id="medallion_architecture" value="Medallion Architecture" style="rounded=1;whiteSpace=wrap;html=1;fillColor=#dae8fc;strokeColor=#6c8ebf;fontSize=16;fontStyle=1;verticalAlign=top;" vertex="1" parent="1">
          <mxGeometry x="480" y="80" width="300" height="370" as="geometry"/>
        </mxCell>
        
        <!-- Bronze Layer -->
        <mxCell id="bronze_layer" value="🥉 Bronze Layer" style="rounded=1;whiteSpace=wrap;html=1;fillColor=#d4a574;strokeColor=#b8860b;fontColor=white;fontSize=14;fontStyle=1;" vertex="1" parent="1">
          <mxGeometry x="500" y="110" width="260" height="50" as="geometry"/>
        </mxCell>
        
        <mxCell id="bronze_raw" value="• Raw data ingestion&#xa;• No transformation&#xa;• Schema-on-read&#xa;• Full audit trail" style="text;html=1;strokeColor=none;fillColor=none;align=left;verticalAlign=top;whiteSpace=wrap;rounded=0;" vertex="1" parent="1">
          <mxGeometry x="510" y="165" width="240" height="60" as="geometry"/>
        </mxCell>
        
        <!-- Silver Layer -->
        <mxCell id="silver_layer" value="🥈 Silver Layer" style="rounded=1;whiteSpace=wrap;html=1;fillColor=#c0c0c0;strokeColor=#666666;fontSize=14;fontStyle=1;" vertex="1" parent="1">
          <mxGeometry x="500" y="230" width="260" height="50" as="geometry"/>
        </mxCell>
        
        <mxCell id="silver_cleaned" value="• Data cleaning &amp; validation&#xa;• Schema enforcement&#xa;• Deduplication&#xa;• Data quality checks" style="text;html=1;strokeColor=none;fillColor=none;align=left;verticalAlign=top;whiteSpace=wrap;rounded=0;" vertex="1" parent="1">
          <mxGeometry x="510" y="285" width="240" height="60" as="geometry"/>
        </mxCell>
        
        <!-- Gold Layer -->
        <mxCell id="gold_layer" value="🥇 Gold Layer" style="rounded=1;whiteSpace=wrap;html=1;fillColor=#ffd700;strokeColor=#b8860b;fontSize=14;fontStyle=1;" vertex="1" parent="1">
          <mxGeometry x="500" y="350" width="260" height="50" as="geometry"/>
        </mxCell>
        
        <mxCell id="gold_business" value="• Business-ready aggregations&#xa;• KPI calculations&#xa;• Historical trends&#xa;• Analytics-ready views" style="text;html=1;strokeColor=none;fillColor=none;align=left;verticalAlign=top;whiteSpace=wrap;rounded=0;" vertex="1" parent="1">
          <mxGeometry x="510" y="405" width="240" height="40" as="geometry"/>
        </mxCell>
        
        <!-- Processing &amp; Transformation -->
        <mxCell id="processing_layer" value="Processing &amp; Transformation" style="rounded=1;whiteSpace=wrap;html=1;fillColor=#f8cecc;strokeColor=#b85450;fontSize=16;fontStyle=1;verticalAlign=top;" vertex="1" parent="1">
          <mxGeometry x="820" y="80" width="160" height="370" as="geometry"/>
        </mxCell>
        
        <mxCell id="trino_sql" value="🔍 Trino&#xa;Distributed SQL" style="rounded=1;whiteSpace=wrap;html=1;fillColor=#ffcccc;strokeColor=#b85450;" vertex="1" parent="1">
          <mxGeometry x="840" y="110" width="120" height="50" as="geometry"/>
        </mxCell>
        
        <mxCell id="dbt_transform" value="🔄 dbt&#xa;Data Transformation" style="rounded=1;whiteSpace=wrap;html=1;fillColor=#ffcccc;strokeColor=#b85450;" vertex="1" parent="1">
          <mxGeometry x="840" y="180" width="120" height="50" as="geometry"/>
        </mxCell>
        
        <mxCell id="spark_processing" value="⚡ Apache Spark&#xa;Big Data Processing" style="rounded=1;whiteSpace=wrap;html=1;fillColor=#ffcccc;strokeColor=#b85450;" vertex="1" parent="1">
          <mxGeometry x="840" y="250" width="120" height="50" as="geometry"/>
        </mxCell>
        
        <mxCell id="ml_feature_eng" value="🤖 ML Feature&#xa;Engineering" style="rounded=1;whiteSpace=wrap;html=1;fillColor=#ffcccc;strokeColor=#b85450;" vertex="1" parent="1">
          <mxGeometry x="840" y="320" width="120" height="50" as="geometry"/>
        </mxCell>
        
        <mxCell id="data_quality" value="✅ Data Quality&#xa;Monitoring" style="rounded=1;whiteSpace=wrap;html=1;fillColor=#ffcccc;strokeColor=#b85450;" vertex="1" parent="1">
          <mxGeometry x="840" y="390" width="120" height="50" as="geometry"/>
        </mxCell>
        
        <!-- Analytics &amp; ML Layer -->
        <mxCell id="analytics_layer" value="Analytics &amp; ML" style="rounded=1;whiteSpace=wrap;html=1;fillColor=#e1bee7;strokeColor=#8e24aa;fontSize=16;fontStyle=1;verticalAlign=top;" vertex="1" parent="1">
          <mxGeometry x="40" y="480" width="300" height="140" as="geometry"/>
        </mxCell>
        
        <mxCell id="ml_models" value="🤖 ML Models&#xa;Training &amp; Serving" style="rounded=1;whiteSpace=wrap;html=1;fillColor=#f3e5f5;strokeColor=#8e24aa;" vertex="1" parent="1">
          <mxGeometry x="60" y="510" width="120" height="50" as="geometry"/>
        </mxCell>
        
        <mxCell id="advanced_analytics" value="📊 Advanced Analytics&#xa;Statistical Analysis" style="rounded=1;whiteSpace=wrap;html=1;fillColor=#f3e5f5;strokeColor=#8e24aa;" vertex="1" parent="1">
          <mxGeometry x="200" y="510" width="120" height="50" as="geometry"/>
        </mxCell>
        
        <mxCell id="predictive" value="🔮 Predictive Models&#xa;Forecasting" style="rounded=1;whiteSpace=wrap;html=1;fillColor=#f3e5f5;strokeColor=#8e24aa;" vertex="1" parent="1">
          <mxGeometry x="60" y="570" width="120" height="40" as="geometry"/>
        </mxCell>
        
        <mxCell id="recommendation" value="💡 Recommendation&#xa;Engines" style="rounded=1;whiteSpace=wrap;html=1;fillColor=#f3e5f5;strokeColor=#8e24aa;" vertex="1" parent="1">
          <mxGeometry x="200" y="570" width="120" height="40" as="geometry"/>
        </mxCell>
        
        <!-- Visualization Layer -->
        <mxCell id="visualization_layer" value="Visualization &amp; Reporting" style="rounded=1;whiteSpace=wrap;html=1;fillColor=#d4e1f5;strokeColor=#6c8ebf;fontSize=16;fontStyle=1;verticalAlign=top;" vertex="1" parent="1">
          <mxGeometry x="380" y="480" width="300" height="140" as="geometry"/>
        </mxCell>
        
        <mxCell id="superset" value="📊 Apache Superset&#xa;Interactive Dashboards" style="rounded=1;whiteSpace=wrap;html=1;fillColor=#cce5ff;strokeColor=#6c8ebf;" vertex="1" parent="1">
          <mxGeometry x="400" y="510" width="130" height="50" as="geometry"/>
        </mxCell>
        
        <mxCell id="mapbox" value="🗺️ Mapbox&#xa;Geospatial Viz" style="rounded=1;whiteSpace=wrap;html=1;fillColor=#cce5ff;strokeColor=#6c8ebf;" vertex="1" parent="1">
          <mxGeometry x="540" y="510" width="120" height="50" as="geometry"/>
        </mxCell>
        
        <mxCell id="embedded" value="📱 Embedded&#xa;Analytics" style="rounded=1;whiteSpace=wrap;html=1;fillColor=#cce5ff;strokeColor=#6c8ebf;" vertex="1" parent="1">
          <mxGeometry x="400" y="570" width="130" height="40" as="geometry"/>
        </mxCell>
        
        <mxCell id="api_access" value="🌐 API Access&#xa;Programmatic" style="rounded=1;whiteSpace=wrap;html=1;fillColor=#cce5ff;strokeColor=#6c8ebf;" vertex="1" parent="1">
          <mxGeometry x="540" y="570" width="120" height="40" as="geometry"/>
        </mxCell>
        
        <!-- End Users -->
        <mxCell id="end_users" value="End Users &amp; Applications" style="rounded=1;whiteSpace=wrap;html=1;fillColor=#f8f8f8;strokeColor=#666666;fontSize=16;fontStyle=1;verticalAlign=top;" vertex="1" parent="1">
          <mxGeometry x="720" y="480" width="260" height="140" as="geometry"/>
        </mxCell>
        
        <mxCell id="business_analysts" value="👔 Business Analysts&#xa;Self-Service Analytics" style="rounded=1;whiteSpace=wrap;html=1;fillColor=#ffffff;strokeColor=#666666;" vertex="1" parent="1">
          <mxGeometry x="740" y="510" width="110" height="50" as="geometry"/>
        </mxCell>
        
        <mxCell id="data_scientists" value="🔬 Data Scientists&#xa;ML &amp; Research" style="rounded=1;whiteSpace=wrap;html=1;fillColor=#ffffff;strokeColor=#666666;" vertex="1" parent="1">
          <mxGeometry x="860" y="510" width="110" height="50" as="geometry"/>
        </mxCell>
        
        <mxCell id="executives" value="💼 Executives&#xa;Strategic Insights" style="rounded=1;whiteSpace=wrap;html=1;fillColor=#ffffff;strokeColor=#666666;" vertex="1" parent="1">
          <mxGeometry x="740" y="570" width="110" height="40" as="geometry"/>
        </mxCell>
        
        <mxCell id="external_apps" value="📱 External Apps&#xa;API Consumers" style="rounded=1;whiteSpace=wrap;html=1;fillColor=#ffffff;strokeColor=#666666;" vertex="1" parent="1">
          <mxGeometry x="860" y="570" width="110" height="40" as="geometry"/>
        </mxCell>
        
        <!-- Data Flow Arrows -->
        
        <!-- External Sources to Ingestion -->
        <mxCell id="flow_external" value="" style="endArrow=classic;html=1;rounded=0;strokeWidth=3;strokeColor=#9673a6;" edge="1" parent="1">
          <mxGeometry width="50" height="50" relative="1" as="geometry">
            <mxPoint x="200" y="150" as="sourcePoint"/>
            <mxPoint x="240" y="150" as="targetPoint"/>
          </mxGeometry>
        </mxCell>
        
        <!-- Edge Devices to Ingestion -->
        <mxCell id="flow_edge" value="" style="endArrow=classic;html=1;rounded=0;strokeWidth=3;strokeColor=#82b366;" edge="1" parent="1">
          <mxGeometry width="50" height="50" relative="1" as="geometry">
            <mxPoint x="200" y="375" as="sourcePoint"/>
            <mxPoint x="240" y="375" as="targetPoint"/>
          </mxGeometry>
        </mxCell>
        
        <!-- Ingestion to Medallion -->
        <mxCell id="flow_ingestion" value="" style="endArrow=classic;html=1;rounded=0;strokeWidth=4;strokeColor=#d6b656;" edge="1" parent="1">
          <mxGeometry width="50" height="50" relative="1" as="geometry">
            <mxPoint x="440" y="265" as="sourcePoint"/>
            <mxPoint x="480" y="265" as="targetPoint"/>
          </mxGeometry>
        </mxCell>
        
        <!-- Bronze to Silver -->
        <mxCell id="flow_bronze_silver" value="" style="endArrow=classic;html=1;rounded=0;strokeWidth=3;strokeColor=#b8860b;" edge="1" parent="1">
          <mxGeometry width="50" height="50" relative="1" as="geometry">
            <mxPoint x="630" y="160" as="sourcePoint"/>
            <mxPoint x="630" y="230" as="targetPoint"/>
          </mxGeometry>
        </mxCell>
        
        <!-- Silver to Gold -->
        <mxCell id="flow_silver_gold" value="" style="endArrow=classic;html=1;rounded=0;strokeWidth=3;strokeColor=#666666;" edge="1" parent="1">
          <mxGeometry width="50" height="50" relative="1" as="geometry">
            <mxPoint x="630" y="280" as="sourcePoint"/>
            <mxPoint x="630" y="350" as="targetPoint"/>
          </mxGeometry>
        </mxCell>
        
        <!-- Medallion to Processing -->
        <mxCell id="flow_to_processing" value="" style="endArrow=classic;html=1;rounded=0;strokeWidth=3;strokeColor=#6c8ebf;" edge="1" parent="1">
          <mxGeometry width="50" height="50" relative="1" as="geometry">
            <mxPoint x="780" y="265" as="sourcePoint"/>
            <mxPoint x="820" y="265" as="targetPoint"/>
          </mxGeometry>
        </mxCell>
        
        <!-- Processing to Analytics -->
        <mxCell id="flow_to_analytics" value="" style="endArrow=classic;html=1;rounded=0;strokeWidth=3;strokeColor=#b85450;" edge="1" parent="1">
          <mxGeometry width="50" height="50" relative="1" as="geometry">
            <mxPoint x="820" y="430" as="sourcePoint"/>
            <mxPoint x="300" y="480" as="targetPoint"/>
            <Array as="points">
              <mxPoint x="820" y="460"/>
              <mxPoint x="300" y="460"/>
            </Array>
          </mxGeometry>
        </mxCell>
        
        <!-- Processing to Visualization -->
        <mxCell id="flow_to_viz" value="" style="endArrow=classic;html=1;rounded=0;strokeWidth=3;strokeColor=#b85450;" edge="1" parent="1">
          <mxGeometry width="50" height="50" relative="1" as="geometry">
            <mxPoint x="850" y="450" as="sourcePoint"/>
            <mxPoint x="600" y="480" as="targetPoint"/>
            <Array as="points">
              <mxPoint x="850" y="460"/>
              <mxPoint x="600" y="460"/>
            </Array>
          </mxGeometry>
        </mxCell>
        
        <!-- Visualization to End Users -->
        <mxCell id="flow_to_users" value="" style="endArrow=classic;html=1;rounded=0;strokeWidth=3;strokeColor=#6c8ebf;" edge="1" parent="1">
          <mxGeometry width="50" height="50" relative="1" as="geometry">
            <mxPoint x="680" y="550" as="sourcePoint"/>
            <mxPoint x="720" y="550" as="targetPoint"/>
          </mxGeometry>
        </mxCell>
        
        <!-- Analytics to End Users -->
        <mxCell id="flow_analytics_to_users" value="" style="endArrow=classic;html=1;rounded=0;strokeWidth=3;strokeColor=#8e24aa;" edge="1" parent="1">
          <mxGeometry width="50" height="50" relative="1" as="geometry">
            <mxPoint x="340" y="580" as="sourcePoint"/>
            <mxPoint x="720" y="580" as="targetPoint"/>
            <Array as="points">
              <mxPoint x="400" y="650"/>
              <mxPoint x="720" y="650"/>
            </Array>
          </mxGeometry>
        </mxCell>
        
        <!-- Labels for flows -->
        <mxCell id="label_realtime" value="Real-time&#xa;Streaming" style="text;html=1;strokeColor=none;fillColor=#ffffcc;align=center;verticalAlign=middle;whiteSpace=wrap;rounded=1;fontSize=10;" vertex="1" parent="1">
          <mxGeometry x="350" y="90" width="60" height="30" as="geometry"/>
        </mxCell>
        
        <mxCell id="label_batch" value="Batch&#xa;Processing" style="text;html=1;strokeColor=none;fillColor=#ffffcc;align=center;verticalAlign=middle;whiteSpace=wrap;rounded=1;fontSize=10;" vertex="1" parent="1">
          <mxGeometry x="350" y="400" width="60" height="30" as="geometry"/>
        </mxCell>
        
        <mxCell id="label_transformation" value="Data&#xa;Transformation" style="text;html=1;strokeColor=none;fillColor=#ffcccc;align=center;verticalAlign=middle;whiteSpace=wrap;rounded=1;fontSize=10;" vertex="1" parent="1">
          <mxGeometry x="790" y="240" width="70" height="30" as="geometry"/>
        </mxCell>
        
        <mxCell id="label_insights" value="Business&#xa;Insights" style="text;html=1;strokeColor=none;fillColor=#f0f0f0;align=center;verticalAlign=middle;whiteSpace=wrap;rounded=1;fontSize=10;" vertex="1" parent="1">
          <mxGeometry x="690" y="520" width="50" height="30" as="geometry"/>
        </mxCell>
        
      </root>
    </mxGraphModel>
  </diagram>
</mxfile>